<svg width="343" height="340" viewBox="0 0 343 340" fill="none" xmlns="http://www.w3.org/2000/svg">
<path d="M345 3.69367L343.283 3.44805L343 5.42789C343.283 3.44805 343.282 3.44783 343.28 3.44753L343.272 3.44649L343.247 3.4429L343.152 3.42989C343.069 3.4187 342.948 3.40263 342.79 3.38236C342.473 3.34182 342.005 3.28452 341.394 3.2161C340.171 3.07925 338.373 2.89787 336.052 2.71707C331.41 2.3555 324.675 1.9961 316.272 2.00003C299.467 2.00789 275.971 3.46856 249.171 9.27838C195.561 20.9006 128.695 49.9403 75.8222 119.571C23.1146 188.984 6.31607 244.135 2.77519 282.076C1.00548 301.038 2.55077 315.669 4.55668 325.595C5.55943 330.557 6.67677 334.341 7.55115 336.9C7.98832 338.18 8.36475 339.154 8.63572 339.816C8.7712 340.146 8.88033 340.399 8.95751 340.574C8.9961 340.661 9.0267 340.728 9.04862 340.776L9.07491 340.833L9.083 340.85L9.08575 340.856C9.08677 340.858 9.08764 340.86 10.8934 340L9.08764 340.86L9.6305 342H10.8934H343H345V340V5.42789V3.69367Z" fill="#F1EAD0" stroke="black" stroke-width="4"/>
</svg>
