<svg class="blob" width="870" height="832" viewBox="0 0 870 832" fill="none" xmlns="http://www.w3.org/2000/svg">
<path class="blob" d="M1 -2H-1V0V832V834H1H403.742H404.006L404.261 833.931L403.742 832C404.261 833.931 404.263 833.931 404.266 833.93L404.276 833.927L404.315 833.917L404.465 833.876C404.596 833.84 404.791 833.786 405.046 833.714C405.557 833.571 406.312 833.356 407.294 833.068C409.26 832.492 412.136 831.624 415.792 830.451C423.106 828.106 433.544 824.541 446.067 819.659C471.106 809.897 504.508 794.857 537.925 773.744C604.686 731.565 671.972 664.835 671.972 567.182C671.972 420.485 740.11 349.57 798.954 288.329C817.268 269.269 834.682 251.146 848.861 231.966C864.019 211.462 868.92 186.528 867.862 160.845C866.804 135.171 859.787 108.609 850.95 84.6603C842.109 60.6984 831.414 39.2671 822.934 23.8324C818.693 16.1125 815.003 9.88639 812.37 5.58674C811.054 3.43677 810.002 1.76808 809.278 0.634726C808.916 0.0680366 808.635 -0.364851 808.445 -0.65718C808.35 -0.803345 808.277 -0.914374 808.227 -0.989423L808.171 -1.07491L808.156 -1.09721L808.152 -1.10322C808.151 -1.10479 808.151 -1.10579 806.484 0L808.151 -1.10579L807.557 -2H806.484H1Z" fill="None" stroke="black" stroke-width="4"/>
</svg>
