<svg width="339" height="337" viewBox="0 0 339 337" fill="none" xmlns="http://www.w3.org/2000/svg">
<path d="M73.8984 117.802C126.31 48.6694 192.567 19.845 245.731 8.30115C272.315 2.52891 295.622 1.07814 312.281 1.07034C320.611 1.06644 327.277 1.42325 331.859 1.78074C334.15 1.95948 335.92 2.13838 337.116 2.27243C337.714 2.33945 338.168 2.39526 338.473 2.43423C338.482 2.4354 338.491 2.43656 338.5 2.4377V336.5H7.32287C7.25664 336.349 7.16639 336.138 7.05584 335.867C6.80312 335.249 6.44431 334.32 6.02377 333.087C5.18271 330.621 4.09476 326.937 3.11489 322.081C1.15526 312.368 -0.372598 297.964 1.37265 279.234C4.86279 241.778 21.4459 186.989 73.8984 117.802Z" fill="#404145" stroke="#404145"/>
</svg>
